<?xml version="1.0" encoding="utf-8"?>
<!-- Generator: Adobe Illustrator 19.2.0, SVG Export Plug-In . SVG Version: 6.00 Build 0)  -->
<svg version="1.1" id="Capa_1" xmlns="http://www.w3.org/2000/svg" xmlns:xlink="http://www.w3.org/1999/xlink" width="125px" height="125px"
	 viewBox="0 0 139.3 95.3" style="enable-background:new 0 0 139.3 95.3;" xml:space="preserve">
<style type="text/css">
	.st0{fill:#36554E;}
	.st1{fill:#85311D;}
</style>
<g>
	<g>
		<rect x="65.7" y="30.2" class="st0" width="3.9" height="3.9"/>
		<rect x="72" y="30.2" class="st0" width="3.9" height="3.9"/>
		<rect x="65.7" y="36.5" class="st0" width="3.9" height="3.9"/>
		<rect x="72" y="36.5" class="st0" width="3.9" height="3.9"/>
	</g>
	<g>
		<rect x="29.3" y="52.9" class="st0" width="4.4" height="4.4"/>
		<rect x="36.3" y="52.9" class="st0" width="4.4" height="4.4"/>
		<rect x="29.3" y="59.9" class="st0" width="4.4" height="4.4"/>
		<rect x="36.3" y="59.9" class="st0" width="4.4" height="4.4"/>
	</g>
	<g>
		<rect x="102.9" y="47.8" class="st0" width="3.1" height="3.1"/>
		<rect x="107.9" y="47.8" class="st0" width="3.1" height="3.1"/>
		<rect x="102.9" y="52.8" class="st0" width="3.1" height="3.1"/>
		<rect x="107.9" y="52.8" class="st0" width="3.1" height="3.1"/>
	</g>
	<path class="st0" d="M19.9,53.5L35,38.3l30.1,30.1l-7.1,7.1l18.7-7.4l29.9-29.9l12.9,12.9l8.1-3.2l-21-21l-8.4,8.4L70.1,7.3
		L42.7,34.7L35,27L14.4,47.7L19.9,53.5z M70.1,18.6L92.6,41L70.8,62.8L48.4,40.3L70.1,18.6z"/>
	<polygon class="st1" points="44.5,84.6 11.7,49.9 5.6,56.1 43.3,91.1 135.5,48.6 	"/>
</g>
</svg>
