<?xml version="1.0" encoding="iso-8859-1"?>
<!-- Generator: Adobe Illustrator 16.0.0, SVG Export Plug-In . SVG Version: 6.00 Build 0)  -->
<!DOCTYPE svg PUBLIC "-//W3C//DTD SVG 1.1//EN" "http://www.w3.org/Graphics/SVG/1.1/DTD/svg11.dtd">
<svg xmlns="http://www.w3.org/2000/svg" xmlns:xlink="http://www.w3.org/1999/xlink" version="1.1" id="Capa_1" x="0px" y="0px" width="100px" height="100px" viewBox="0 0 676.176 676.176" style="enable-background:new 0 0 676.176 676.176;" xml:space="preserve">
<g>
	<path d="M676.167,388.971c0.014-0.721,0.01-1.439-0.009-2.16c0.084-10.703-3.602-21.498-11.08-32.633   c-0.854-1.271-1.687-2.549-2.494-3.838c-7.783-13.96-12.797-28.542-13.425-45.661c-1.08-27.538-13.5-49.229-42.391-58.14   c-0.634-0.192-1.244-0.417-1.866-0.627c-10.83-5.807-21.076-12.313-30.588-19.922c-4.56-4.436-8.864-9.195-13.086-14.01   c-4.491-5.173-9.218-9.321-14.269-12.441c-9.685-7.664-21.959-10.021-35.692-6.55c-12.431,3.167-25.107,4.828-37.749,4.925   c-12.641-0.097-25.317-1.758-37.749-4.925c-13.732-3.471-26.009-1.114-35.691,6.55c-5.052,3.12-9.777,7.268-14.27,12.441   c-4.221,4.815-8.525,9.575-13.086,14.01c-9.511,7.61-19.757,14.116-30.588,19.922c-0.622,0.21-1.232,0.435-1.866,0.627   c-28.89,8.91-41.31,30.602-42.39,58.14c-0.628,17.118-5.643,31.7-13.424,45.661c-0.809,1.289-1.641,2.567-2.495,3.838   c-7.479,11.135-11.164,21.93-11.08,32.633c-0.019,0.721-0.022,1.439-0.009,2.16c-0.01,0.553-0.012,1.107-0.002,1.662   c-0.115,10.738,3.571,21.496,11.079,32.758c0.628,0.936,1.24,1.875,1.845,2.818c8.11,14.271,13.363,29.145,14.007,46.68   c1.08,27.539,13.5,49.23,42.391,58.143c0.773,0.232,1.521,0.504,2.276,0.766c10.36,5.568,20.189,11.77,29.345,18.98   c4.87,4.66,9.442,9.703,13.919,14.812c4.678,5.387,9.61,9.654,14.898,12.814c9.607,7.367,21.709,9.592,35.219,6.178   c12.405-3.162,25.057-4.822,37.671-4.926c12.614,0.104,25.267,1.764,37.671,4.926c13.51,3.414,25.61,1.189,35.219-6.178   c5.288-3.16,10.223-7.43,14.898-12.814c4.477-5.107,9.049-10.152,13.919-14.812c9.154-7.211,18.984-13.412,29.345-18.98   c0.756-0.262,1.503-0.531,2.276-0.766c28.891-8.91,41.311-30.604,42.391-58.143c0.645-17.535,5.896-32.408,14.008-46.68   c0.604-0.943,1.217-1.885,1.845-2.818c7.508-11.262,11.193-22.02,11.079-32.758C676.179,390.078,676.177,389.523,676.167,388.971z    M474.201,546.238c-0.229,0.006-0.454,0.004-0.683,0.008c-0.228-0.004-0.454-0.002-0.682-0.008   c-17.504-0.072-34.563-2.961-50.628-8.258c-61.687-21.52-107.621-82.141-108.119-148.613c-0.006-0.729,0.005-1.451,0.008-2.176   c0.95-65.964,46.567-125.991,107.783-147.498c16.165-5.367,33.343-8.292,50.97-8.366c0.225-0.005,0.445-0.002,0.668-0.007   c0.224,0.004,0.444,0.001,0.668,0.007c17.627,0.074,34.806,3,50.97,8.366c61.217,21.506,106.834,81.534,107.782,147.498   c0.004,0.725,0.016,1.447,0.009,2.176c-0.498,66.475-46.434,127.096-108.119,148.613   C508.764,543.277,491.705,546.166,474.201,546.238z" fill="#136d52"/>
	<polygon points="586.367,416.008 587.988,414.838 610.217,399.627 580.607,353.549 557.117,368.488 556.307,369.027  " fill="#136d52"/>
	<polygon points="367.217,413.938 395.567,366.688 370.547,350.668 340.488,396.658  " fill="#136d52"/>
	<path d="M551.357,372.629l0.812-0.541v-0.09l-12.96,6.93l-40.591-25.02c0,0-56.5,16.16-65.699,42.299l21.601,3.42l26.819-16.379   l76.05,56.16l24.03-19.893L551.357,372.629z" fill="#136d52"/>
	<rect x="258.188" y="524.098" width="25.2" height="25.201" fill="#136d52"/>
	<path d="M269.55,303.64c0.778-19.84,6.068-36.996,15.726-51.063c10.833-15.777,26.524-26.922,46.64-33.126l0.116-0.035   c12.036-3.656,21.808-13.971,32.421-26.076c5.662-6.513,11.747-11.937,18.22-16.281c0.777-1.073,1.559-2.152,2.347-3.239   c-26.37-28.26-52.02-55.53-78.479-83.79c-20.07,21.6-133.65,153.181-154.53,168.839v-36.719H77.76v120.869   c-0.72,0.989-59.4,70.2-77.76,93.601h75.15V572.25c3.42-3.062,6.48-5.76,9.18-8.82c49.95-55.17,101.25-109.08,148.77-166.318   c3.479-4.176,6.623-8.635,9.532-13.289c0.793-14.14,5.52-28.322,14.103-42.259C265.257,327.797,269.079,316.476,269.55,303.64z" fill="#136d52"/>
	<path d="M258.363,439.111c-3.374-5.062-6.212-10.158-8.514-15.277L117.655,572.248h53.329l98.307-109.836   c-2.25-8.018-5.897-15.816-10.866-23.207L258.363,439.111z" fill="#136d52"/>
	<path d="M257.918,487.559v25.199h20.117c-3.441-7.764-5.491-16.225-6.022-25.199H257.918z" fill="#136d52"/>
	<path d="M303.188,549.299h10.917c-3.883-1.938-7.523-4.102-10.917-6.473V549.299z" fill="#136d52"/>
	<path d="M549.647,447.508l-69.21-50.85l-25.021,11.25l-30.24-5.223c-4.77-17.729,28.08-38.878,28.08-38.878   c-5.22-3.062-38.88,13.409-38.88,13.409l-12.96-7.2l-27.99,48.149l16.562,10.801c0,0,12.928,17.229,20.88,24.852   c30.25,29,51.2,33.459,75.25,35C507.929,490.215,548.087,449.121,549.647,447.508z" fill="#136d52"/>
</g>
<g>
</g>
<g>
</g>
<g>
</g>
<g>
</g>
<g>
</g>
<g>
</g>
<g>
</g>
<g>
</g>
<g>
</g>
<g>
</g>
<g>
</g>
<g>
</g>
<g>
</g>
<g>
</g>
<g>
</g>
</svg>
